PathFileType	4	(X/Y/Z)	 s04c0202.trc
DataRate	CameraRate	NumFrames	NumMarkers	Units	OrigDataRate	OrigDataStartFrame	OrigNumFrames
200	200	6	50	mm	200	1751	2000
Frame#	Time	racr			lacr			c7			jug			rlel			rdr			llel			ldr			s2			lic			ric			lasi			rasi			rpsi			lpsi			rgt			lgt			rth1			rth2			rth3			rth4			rlfc			rmfc			rsh1			rsh2			rsh3			rsh4			rlmal			rmmal			rcal			rtoe			rmt5			lth1			lth2			lth4			lth3			llfc			lmfc			lsh1			lsh2			lsh3			lsh4			llmal			lmmal			lcal			ltoe			lmt5			SBIKE			LBIKE			RBIKE			
		X1	Y1	Z1	X2	Y2	Z2	X3	Y3	Z3	X4	Y4	Z4	X5	Y5	Z5	X6	Y6	Z6	X7	Y7	Z7	X8	Y8	Z8	X9	Y9	Z9	X10	Y10	Z10	X11	Y11	Z11	X12	Y12	Z12	X13	Y13	Z13	X14	Y14	Z14	X15	Y15	Z15	X16	Y16	Z16	X17	Y17	Z17	X18	Y18	Z18	X19	Y19	Z19	X20	Y20	Z20	X21	Y21	Z21	X22	Y22	Z22	X23	Y23	Z23	X24	Y24	Z24	X25	Y25	Z25	X26	Y26	Z26	X27	Y27	Z27	X28	Y28	Z28	X29	Y29	Z29	X30	Y30	Z30	X31	Y31	Z31	X32	Y32	Z32	X33	Y33	Z33	X34	Y34	Z34	X35	Y35	Z35	X36	Y36	Z36	X37	Y37	Z37	X38	Y38	Z38	X39	Y39	Z39	X40	Y40	Z40	X41	Y41	Z41	X42	Y42	Z42	X43	Y43	Z43	X44	Y44	Z44	X45	Y45	Z45	X46	Y46	Z46	X47	Y47	Z47	X48	Y48	Z48	X49	Y49	Z49	X50	Y50	Z50	
1751	8.7550	521.055359	1294.622625	-77.853613	558.752788	1311.142061	-342.122641	518.141487	1371.073996	-218.026341	473.979035	1218.270126	-241.199156	466.956633	1038.824595	107.062599	703.769437	956.985353	-39.100110	521.384776	1117.632182	-563.229879	679.761816	911.302247	-440.502765	-55.847867	1179.975013	-288.823490	109.197594	1194.848719	-433.013551	74.571942	1194.889662	-112.788462	147.048045	1144.986886	-388.002440	125.562864	1156.069117	-156.275676	-35.039222	1227.029513	-244.990065	-25.374771	1227.276103	-318.857937	37.393619	1144.215010	-97.162103	71.598832	1092.057481	-462.177950	170.683225	1054.246906	-84.517831	256.056050	1032.302519	-90.389807	318.896902	975.815112	-90.145205	271.432344	1063.422021	-106.169101	434.735222	884.258890	-113.052800	422.281594	862.126831	-225.442681	383.096638	772.187771	-90.862432	369.692965	682.353154	-104.488415	312.998813	617.902933	-111.475474	401.094056	673.633518	-126.986999	262.679889	474.870449	-119.211175	283.843426	485.447750	-203.360143	192.167747	438.719035	-159.723408	491.151757	440.756904	-143.518265	425.873854	410.498021	-88.540675	124.669311	1012.695249	-477.321359	196.794011	964.579801	-482.098610	223.424466	987.317180	-472.437101	236.323744	884.986019	-488.804839	313.684734	746.687116	-469.854334	339.562818	717.280312	-360.940764	261.069765	636.972144	-490.710085	226.801710	560.515565	-466.272887	157.056896	505.579068	-463.617415	249.927818	548.419493	-436.706947	64.156829	388.733622	-453.041829	61.798362	391.994938	-365.342044	-11.713838	414.602599	-410.816502	213.866607	210.109627	-405.240974	137.346139	226.661027	-468.422253	-176.750157	935.490087	-280.318595	-3.225997	85.551671	-484.744355	-14.991313	80.418694	-84.261576	
1752	8.7600	521.366481	1294.828879	-78.166595	558.267011	1311.818255	-342.658694	517.874286	1371.275111	-218.309765	474.195594	1218.310304	-241.402908	467.069845	1039.222189	107.137534	703.446322	956.871342	-39.133472	520.376761	1116.294818	-561.744755	679.600334	910.795380	-440.051483	-56.229663	1178.593819	-289.163155	109.486863	1194.311289	-432.280793	74.791526	1192.940668	-111.996457	147.410357	1144.870836	-387.339307	125.882995	1154.155648	-155.684612	-35.320108	1225.195769	-244.644126	-25.284902	1226.082427	-318.854853	37.640548	1139.731226	-96.752211	73.247986	1091.750167	-462.233875	170.677227	1047.434698	-84.456338	255.806659	1024.281293	-90.489446	317.765128	966.316773	-91.848231	271.699812	1055.539643	-105.373213	431.746619	874.136558	-114.071052	419.192576	852.122757	-226.125690	381.052058	762.328470	-91.830189	369.346641	672.194141	-105.362165	313.961905	606.651731	-112.225800	401.053035	663.948318	-127.793285	265.728320	462.816459	-119.741126	286.811163	473.260204	-203.953532	196.321095	425.192969	-160.613820	494.802902	431.789814	-143.648049	429.791276	400.740823	-88.709614	127.744393	1013.654590	-476.113030	200.598043	966.869130	-480.916682	226.730278	989.871587	-470.568942	241.449460	887.943290	-488.000166	319.852394	751.422540	-468.911296	344.969567	722.323441	-359.525337	265.808677	643.238014	-490.014094	230.010431	567.697267	-465.636062	159.057079	514.195601	-462.901034	252.824015	555.052753	-435.994008	63.835882	399.508752	-452.355316	61.645193	402.343906	-365.027562	-11.416627	426.962482	-410.072936	208.554965	216.216798	-404.465516	133.110335	235.826249	-468.394351	-176.760861	935.630354	-280.835865	-3.229135	85.507474	-484.752132	-14.996994	80.412818	-84.284113	
1753	8.7650	521.671713	1295.071679	-78.566797	557.732833	1312.405815	-343.203213	517.660782	1371.532264	-218.669787	474.250601	1218.469766	-241.687722	467.212211	1039.632049	107.130251	703.178156	956.840958	-39.272101	519.367633	1114.847515	-560.160737	679.565705	910.305404	-439.656988	-56.900358	1177.908494	-289.819893	109.797721	1193.766778	-431.678351	75.635667	1190.952767	-110.487608	147.636884	1144.675398	-386.452377	126.284065	1152.251883	-155.088946	-35.314659	1223.498187	-244.217568	-24.865513	1224.722482	-319.371245	37.982501	1135.296961	-96.290358	74.970556	1091.474410	-462.234362	170.709490	1041.017744	-84.381304	255.441167	1016.625415	-90.726939	316.332607	957.474249	-92.794117	271.905694	1047.985616	-104.846528	428.292452	865.447458	-115.013059	415.766198	843.448470	-227.321506	378.979536	752.477368	-92.711580	369.044566	662.272214	-106.272348	314.347962	595.866595	-112.782959	400.684141	654.456020	-128.366105	268.593470	451.141346	-120.156285	289.463795	461.658952	-204.473070	199.009982	414.084541	-159.268070	498.152768	422.295362	-143.824924	433.488518	390.661117	-89.086918	130.594835	1014.809465	-475.535206	204.190364	969.165912	-479.801001	229.838266	992.374121	-468.724927	246.272775	890.964526	-487.257035	325.645067	756.255131	-468.064646	350.234564	726.861900	-358.823039	270.240420	649.567480	-489.435554	233.100862	574.770081	-464.901043	161.042265	522.613493	-462.150753	255.610184	561.670866	-435.297384	63.768128	410.227129	-451.636930	61.494696	412.701014	-364.685991	-10.927773	439.187450	-409.366229	204.461997	223.848456	-404.542215	129.504600	245.268232	-468.429222	-176.829362	935.506494	-280.747236	-3.226073	85.492608	-484.774214	-14.992550	80.401007	-84.290038	
1754	8.7700	522.051530	1295.318016	-78.825919	557.292016	1312.990847	-343.824518	517.511370	1371.829630	-219.012809	474.384754	1218.662038	-241.930914	467.425969	1040.099174	107.023896	702.977957	956.839125	-39.432035	518.268325	1112.894340	-558.230735	679.585859	909.751108	-439.298833	-56.956950	1176.568250	-289.627826	109.959027	1193.075184	-430.865127	75.934595	1189.133152	-109.730117	147.839979	1144.416371	-385.620324	126.754214	1150.649442	-154.385122	-35.610171	1221.744374	-243.584621	-24.544381	1223.649943	-319.603919	38.407841	1130.973501	-95.897631	76.585594	1091.258015	-462.146487	170.621499	1035.047602	-84.153028	255.033878	1009.442340	-90.387061	314.973366	949.534112	-93.770043	272.040687	1040.548177	-104.350790	425.138822	857.219524	-115.695169	412.003902	835.373631	-228.452707	376.943914	743.006915	-93.470026	368.186723	652.561280	-106.876612	314.437539	585.346925	-113.360853	399.863021	644.999315	-128.849474	271.038628	439.881570	-120.356115	292.160207	450.529021	-205.104010	202.297534	400.930815	-160.537258	501.100762	412.208881	-143.972676	436.565129	380.366703	-89.267505	133.222242	1016.096025	-474.899981	207.540212	971.562125	-478.715971	232.650805	995.010034	-467.056819	250.851240	894.070646	-486.684619	331.384607	760.955370	-467.140375	355.462997	731.429925	-357.579401	274.427832	655.906045	-488.808841	236.070465	581.815682	-464.292021	163.116628	530.928219	-461.330079	258.148177	568.336692	-434.615411	63.909685	420.735744	-450.886176	60.208319	422.383892	-363.863546	-9.983544	451.219353	-408.880154	200.999306	231.946641	-404.498296	126.482848	254.940289	-468.421476	-176.864227	935.479974	-280.822944	-3.232234	85.466870	-484.783716	-14.990441	80.392763	-84.294463	
1755	8.7750	522.395794	1295.633393	-79.069200	557.000190	1313.557161	-344.457877	517.385378	1372.104018	-219.371226	474.660768	1218.791032	-242.136641	467.706667	1040.568541	106.904924	702.901141	956.794753	-39.674077	517.497833	1111.594876	-556.753219	679.690235	909.307751	-438.995845	-57.008300	1175.278763	-289.336540	110.059218	1192.544074	-430.161745	76.225188	1187.448080	-108.958486	148.024893	1144.190197	-384.905033	127.226941	1149.241564	-153.720397	-35.779111	1220.043463	-242.821505	-28.767188	1223.431971	-317.100636	38.870272	1127.164653	-95.587151	78.206431	1091.094318	-461.979805	170.497596	1030.217965	-84.032686	254.181758	1002.719596	-90.954250	312.852490	941.607335	-94.368220	271.881397	1033.619118	-103.987641	421.690148	848.678753	-116.990512	408.247727	827.312290	-229.484725	374.705806	733.793968	-94.193652	367.089920	643.258806	-107.403772	314.434656	575.240310	-113.822119	398.396953	635.922988	-129.274573	273.176353	428.756566	-120.282953	294.211502	440.087128	-204.356188	204.689033	389.463244	-160.366923	503.568010	401.826163	-144.252880	439.404929	370.009392	-89.525272	135.626034	1017.435267	-474.253910	210.584494	974.070496	-477.765100	235.239483	997.707539	-465.523608	255.139402	897.246232	-486.195691	337.017838	765.761184	-466.351238	360.489163	735.989238	-356.823611	278.427330	662.361424	-488.171112	238.931339	588.816085	-463.513661	165.198664	539.323049	-460.622944	260.800837	575.115051	-433.958091	64.267596	431.291089	-450.145131	61.389158	432.711674	-363.310668	-9.328132	462.936884	-407.595638	198.263202	240.594032	-404.539367	124.005065	264.718848	-468.340982	-176.858040	935.417787	-280.755505	-3.233893	85.446665	-484.780141	-14.976124	80.401163	-84.286366	
1756	8.7800	522.734028	1296.017044	-79.420302	556.583529	1314.036022	-345.111545	517.308780	1372.376446	-219.771929	474.719463	1218.984460	-242.325493	468.087871	1040.940574	106.746595	702.956305	956.691240	-39.914024	516.812275	1110.382426	-555.458046	679.922238	909.006453	-438.789888	-57.165321	1173.927911	-288.940745	110.138887	1192.024510	-429.487817	76.666458	1186.037705	-108.118178	148.193843	1144.027785	-384.034360	127.732269	1147.884399	-153.087555	-37.181934	1219.142439	-240.971380	-29.176635	1222.164194	-316.609031	39.370110	1123.807275	-95.250074	79.755803	1091.005031	-461.709838	170.036647	1026.141900	-83.506365	253.046982	996.797262	-91.020055	310.285310	934.392222	-94.928018	271.503005	1026.870216	-104.453960	418.529557	840.822759	-117.383785	404.660728	819.420316	-230.194252	372.307749	724.855094	-94.708147	365.724865	634.258267	-107.708155	313.912386	565.550111	-113.903646	397.261190	627.192482	-129.207402	274.950757	417.895699	-120.059035	296.066279	429.137994	-204.590213	206.521752	378.428184	-160.010856	505.682213	391.060226	-144.585376	441.299105	359.195323	-89.690425	137.849897	1018.827409	-473.477652	213.416133	976.736118	-476.970462	237.588632	1000.518453	-464.206130	259.127856	900.605947	-485.977137	342.401614	770.753358	-465.398840	364.524519	740.677496	-356.661592	282.448016	668.768567	-487.427621	241.769350	595.942410	-462.765751	167.358444	547.525523	-459.869476	263.645654	581.876389	-433.170442	64.905750	441.804908	-449.448237	62.443695	443.209286	-362.528438	-8.274745	474.712504	-406.848243	196.081448	249.508990	-404.636652	122.138595	274.753274	-468.315243	-176.839571	935.321932	-280.624562	-3.218990	85.422333	-484.793150	-14.976837	80.410493	-84.308983	
